<svg fill="white" height="200px" width="200px" version="1.1" id="Layer_1" xmlns="http://www.w3.org/2000/svg" xmlns:xlink="http://www.w3.org/1999/xlink" viewBox="-51.2 -51.2 614.40 614.40" xml:space="preserve" stroke="white"><g id="SVGRepo_bgCarrier" stroke-width="0"><rect x="-51.2" y="-51.2" width="614.40" height="614.40" rx="307.2" fill="blueviolet" strokewidth="0"></rect></g><g id="SVGRepo_tracerCarrier" stroke-linecap="round" stroke-linejoin="round"></g><g id="SVGRepo_iconCarrier"> <g> <g> <path d="M509.453,290.891c-1.068-1.505-24.991-34.956-64.337-70.94l61.271-49.644c5.923-4.8,6.834-13.492,2.036-19.416 c-4.798-5.925-13.494-6.834-19.414-2.035l-65.142,52.78c-18.55-15.027-37.288-27.705-56.019-37.934l19.552-36.24 c3.62-6.709,1.115-15.084-5.595-18.703c-6.706-3.62-15.083-1.115-18.703,5.595l-20.086,37.231 c-24.722-10.653-49.277-16.961-73.209-18.725V60.368c0-7.624-6.182-13.804-13.804-13.804c-7.624,0-13.804,6.18-13.804,13.804 v72.491c-24.105,1.777-48.841,8.162-73.745,18.955l-20.209-37.461c-3.619-6.709-11.993-9.213-18.703-5.595 c-6.71,3.619-9.214,11.993-5.595,18.703l19.7,36.516c-18.561,10.181-37.128,22.769-55.508,37.658l-65.142-52.78 c-5.923-4.798-14.616-3.889-19.416,2.035s-3.889,14.616,2.035,19.416l61.271,49.644c-39.345,35.984-63.269,69.435-64.337,70.94 c-3.397,4.786-3.397,11.195,0,15.981c1.146,1.614,28.572,39.973,73.127,78.793c59.896,52.187,122.253,79.772,180.326,79.772 c58.074,0,120.429-27.585,180.326-79.772c44.555-38.82,71.981-77.179,73.126-78.793 C512.85,302.086,512.85,295.676,509.453,290.891z M93.429,304.074c0.015,0.491,0.036,0.98,0.057,1.47 c0.054,1.343,0.126,2.682,0.213,4.017c0.028,0.42,0.05,0.842,0.08,1.262c0.123,1.688,0.271,3.37,0.444,5.043 c0.037,0.359,0.083,0.715,0.123,1.073c0.15,1.353,0.316,2.7,0.5,4.043c0.068,0.5,0.137,0.998,0.21,1.496 c0.21,1.441,0.438,2.877,0.686,4.307c0.041,0.235,0.076,0.471,0.117,0.705c0.291,1.632,0.612,3.254,0.95,4.867 c0.098,0.468,0.203,0.933,0.305,1.4c0.269,1.229,0.554,2.453,0.85,3.671c0.112,0.46,0.221,0.921,0.337,1.379 c0.4,1.583,0.82,3.158,1.267,4.722c0.079,0.273,0.163,0.543,0.243,0.814c0.387,1.324,0.788,2.641,1.208,3.951 c0.156,0.487,0.315,0.973,0.475,1.459c0.407,1.235,0.83,2.463,1.266,3.686c0.123,0.342,0.239,0.687,0.363,1.03 c0.552,1.513,1.128,3.015,1.723,4.507c0.163,0.409,0.334,0.814,0.5,1.222c0.469,1.15,0.951,2.293,1.447,3.429 c0.195,0.446,0.386,0.892,0.584,1.335c0.658,1.474,1.331,2.943,2.032,4.394c0.039,0.08,0.08,0.159,0.119,0.239 c0.672,1.389,1.369,2.762,2.08,4.129c0.221,0.424,0.446,0.845,0.669,1.267c0.595,1.118,1.201,2.228,1.821,3.331 c0.193,0.345,0.382,0.69,0.578,1.034c0.798,1.396,1.615,2.78,2.453,4.151c0.047,0.077,0.091,0.157,0.138,0.235 c-42.299-31.835-73.546-68.885-86.122-84.86c12.581-15.98,43.828-53.028,86.126-84.852c-0.048,0.079-0.093,0.16-0.141,0.239 c-0.835,1.367-1.651,2.747-2.448,4.14c-0.2,0.351-0.395,0.705-0.592,1.059c-0.613,1.091-1.213,2.188-1.801,3.294 c-0.231,0.432-0.46,0.864-0.686,1.299c-0.698,1.342-1.382,2.692-2.043,4.054c-0.051,0.105-0.105,0.208-0.156,0.313 c-0.696,1.441-1.364,2.899-2.018,4.364c-0.204,0.457-0.403,0.917-0.603,1.376c-0.487,1.118-0.961,2.242-1.423,3.374 c-0.173,0.422-0.349,0.842-0.518,1.266c-0.592,1.483-1.164,2.976-1.713,4.481c-0.131,0.359-0.254,0.723-0.382,1.084 c-0.429,1.202-0.843,2.409-1.245,3.624c-0.164,0.498-0.327,0.997-0.487,1.498c-0.413,1.291-0.809,2.588-1.19,3.893 c-0.084,0.289-0.175,0.574-0.258,0.864c-0.444,1.557-0.861,3.124-1.26,4.699c-0.119,0.471-0.231,0.944-0.346,1.416 c-0.294,1.204-0.573,2.413-0.839,3.626c-0.105,0.476-0.211,0.953-0.312,1.432c-0.338,1.61-0.657,3.225-0.947,4.851 c-0.043,0.246-0.08,0.493-0.123,0.739c-0.246,1.418-0.472,2.842-0.681,4.271c-0.073,0.504-0.144,1.009-0.213,1.514 c-0.182,1.336-0.348,2.677-0.497,4.023c-0.04,0.363-0.087,0.723-0.124,1.086c-0.174,1.673-0.322,3.353-0.444,5.04 c-0.03,0.42-0.052,0.841-0.08,1.262c-0.087,1.335-0.157,2.674-0.213,4.017c-0.019,0.49-0.04,0.98-0.057,1.471 c-0.054,1.724-0.091,3.451-0.091,5.189S93.376,302.349,93.429,304.074z M256.002,433.934 c-74.468,0-135.052-60.585-135.052-135.054s60.584-135.052,135.052-135.052s135.054,60.584,135.054,135.052 S330.47,433.934,256.002,433.934z M394.734,383.732c0.048-0.077,0.092-0.159,0.139-0.236c0.839-1.372,1.658-2.759,2.457-4.158 c0.188-0.329,0.37-0.661,0.555-0.993c0.632-1.125,1.253-2.26,1.859-3.401c0.211-0.398,0.422-0.794,0.631-1.194 c1.512-2.903,2.939-5.857,4.277-8.86c0.174-0.391,0.344-0.783,0.515-1.175c0.53-1.215,1.045-2.436,1.546-3.666 c0.138-0.338,0.28-0.675,0.415-1.015c0.613-1.535,1.206-3.081,1.774-4.64c0.092-0.253,0.178-0.507,0.268-0.759 c0.475-1.324,0.932-2.656,1.373-3.996c0.138-0.418,0.275-0.837,0.409-1.256c0.457-1.425,0.896-2.856,1.314-4.297 c0.048-0.168,0.102-0.334,0.15-0.502c0.46-1.608,0.892-3.227,1.303-4.855c0.099-0.393,0.193-0.79,0.29-1.184 c0.318-1.296,0.618-2.599,0.906-3.908c0.09-0.409,0.181-0.816,0.268-1.224c0.346-1.648,0.674-3.303,0.97-4.97 c0.03-0.168,0.055-0.338,0.084-0.507c0.261-1.496,0.498-3.001,0.719-4.511c0.068-0.468,0.133-0.936,0.197-1.407 c0.189-1.38,0.36-2.765,0.514-4.155c0.036-0.33,0.079-0.657,0.113-0.987c0.175-1.684,0.324-3.377,0.447-5.074 c0.029-0.409,0.051-0.819,0.079-1.227c0.087-1.343,0.159-2.69,0.214-4.043c0.019-0.489,0.04-0.976,0.055-1.465 c0.054-1.724,0.091-3.452,0.091-5.189s-0.037-3.465-0.091-5.189c-0.015-0.489-0.036-0.977-0.055-1.466 c-0.055-1.351-0.126-2.699-0.214-4.042c-0.026-0.409-0.048-0.82-0.079-1.229c-0.124-1.698-0.272-3.39-0.447-5.074 c-0.035-0.33-0.077-0.659-0.113-0.988c-0.153-1.389-0.324-2.773-0.514-4.152c-0.065-0.471-0.13-0.94-0.197-1.409 c-0.219-1.507-0.457-3.009-0.718-4.503c-0.03-0.171-0.055-0.344-0.086-0.513c-0.295-1.665-0.623-3.32-0.969-4.967 c-0.087-0.411-0.179-0.82-0.269-1.23c-0.286-1.306-0.587-2.606-0.903-3.9c-0.097-0.398-0.19-0.795-0.291-1.191 c-0.411-1.626-0.842-3.244-1.302-4.849c-0.05-0.173-0.104-0.344-0.153-0.516c-0.417-1.436-0.854-2.862-1.309-4.282 c-0.135-0.424-0.273-0.846-0.413-1.267c-0.439-1.333-0.895-2.659-1.367-3.977c-0.093-0.258-0.181-0.519-0.273-0.777 c-0.566-1.554-1.158-3.098-1.77-4.63c-0.138-0.345-0.282-0.688-0.422-1.033c-0.497-1.222-1.009-2.435-1.536-3.642 c-0.174-0.399-0.346-0.798-0.523-1.194c-0.671-1.505-1.357-3-2.071-4.479c-0.006-0.012-0.012-0.023-0.018-0.036 c-0.704-1.456-1.434-2.895-2.18-4.326c-0.213-0.407-0.428-0.812-0.643-1.216c-0.6-1.131-1.215-2.253-1.841-3.368 c-0.19-0.34-0.377-0.682-0.57-1.02c-0.797-1.393-1.611-2.775-2.448-4.141c-0.05-0.081-0.095-0.164-0.145-0.246 c42.303,31.828,73.548,68.876,86.125,84.85C468.276,314.862,437.03,351.907,394.734,383.732z"></path> </g> </g> <g> <g> <path d="M354.238,272.454c-1.509-28.224-22.337-50.904-48.921-54.909c-2.75-0.414-5.562-0.628-8.421-0.628 c-5.391,0-10.491,0.959-15.239,2.543c-10.444,3.484-19.182,9.996-25.554,15.984c-6.879-6.536-16.605-13.69-28.462-16.856 c-3.952-1.056-8.142-1.669-12.541-1.669c-2.857,0-5.669,0.214-8.419,0.628c-26.581,4.005-47.409,26.685-48.919,54.908 c-0.062,1.176-0.094,2.33-0.094,3.462c-0.007,11.328,2.96,20.528,6.476,27.735c1.757,3.603,3.653,6.709,5.38,9.33 c7.545,11.448,25.92,28.507,40.601,40.653c32.889,27.212,42.046,27.212,45.957,27.212c0.247,0,0.516,0,0.809-0.007 c4.401-0.099,14.464-1.691,45.141-27.16c2.732-2.268,5.593-4.71,8.492-7.257c12.558-11.039,25.784-24.055,31.965-33.452 c0,0,0.001-0.001,0.001-0.003c2.072-3.153,4.384-7,6.411-11.567c3.041-6.851,5.442-15.32,5.432-25.494 C354.332,274.778,354.302,273.627,354.238,272.454z M326.718,277.026c-0.177,7.089-2.396,13.317-7.298,20.774 c-9.725,14.787-50.497,49.012-63.306,54.939c-10.083-4.692-37.229-26.581-53.265-42.951c-4.513-4.605-8.146-8.774-10.272-12 c-2.071-3.143-3.671-6.111-4.837-9.033c-1.749-4.384-2.526-8.664-2.46-13.277c0.007-0.512,0.025-1.03,0.052-1.55 c0.705-13.172,9.653-24.349,21.323-28.078c2.693-0.86,5.531-1.324,8.447-1.324c13.369,0,25.779,14.024,29.402,19.38 c2.511,3.784,6.738,6.07,11.278,6.147c1.708,0.036,3.378-0.251,4.939-0.82c2.604-0.944,4.892-2.666,6.543-4.978 c3.92-5.487,16.885-19.729,29.632-19.729c1.944,0,3.853,0.206,5.708,0.599c12.984,2.746,23.304,14.617,24.065,28.805 c0.029,0.527,0.047,1.048,0.055,1.564C326.732,276.008,326.73,276.519,326.718,277.026z"></path> </g> </g> <g> <g> <path d="M409.253,80.257c-0.179-0.87-0.44-1.739-0.785-2.581c-0.345-0.828-0.774-1.629-1.27-2.374 c-0.497-0.759-1.077-1.463-1.712-2.098c-0.635-0.635-1.353-1.215-2.1-1.726c-0.759-0.497-1.56-0.925-2.387-1.27 c-0.83-0.345-1.698-0.607-2.581-0.787c-1.781-0.359-3.617-0.359-5.397,0c-0.883,0.179-1.753,0.442-2.581,0.787 c-0.828,0.345-1.629,0.773-2.387,1.27c-0.745,0.511-1.451,1.091-2.086,1.726c-0.649,0.635-1.215,1.339-1.726,2.098 c-0.496,0.745-0.925,1.546-1.27,2.374c-0.345,0.842-0.606,1.712-0.785,2.581c-0.179,0.897-0.276,1.808-0.276,2.706 s0.097,1.808,0.276,2.692s0.44,1.753,0.785,2.581c0.345,0.842,0.774,1.643,1.27,2.388c0.511,0.759,1.077,1.463,1.726,2.098 c0.635,0.635,1.34,1.215,2.086,1.712c0.759,0.497,1.56,0.925,2.387,1.27c0.83,0.345,1.698,0.607,2.581,0.787 c0.897,0.179,1.794,0.276,2.706,0.276c0.897,0,1.794-0.097,2.692-0.276c0.883-0.179,1.753-0.442,2.581-0.787 s1.629-0.773,2.387-1.27c0.745-0.497,1.465-1.077,2.1-1.712c0.635-0.635,1.215-1.339,1.712-2.098 c0.496-0.745,0.925-1.546,1.27-2.388c0.345-0.828,0.606-1.698,0.785-2.581s0.276-1.795,0.276-2.692S409.433,81.155,409.253,80.257 z"></path> </g> </g> <g> <g> <path d="M129.155,80.257c-0.179-0.87-0.442-1.739-0.787-2.581c-0.345-0.828-0.773-1.629-1.27-2.374 c-0.497-0.759-1.077-1.463-1.712-2.098s-1.339-1.215-2.098-1.726c-0.745-0.497-1.56-0.925-2.388-1.27 c-0.828-0.345-1.698-0.607-2.581-0.787c-1.781-0.359-3.617-0.359-5.397,0c-0.87,0.179-1.739,0.442-2.581,0.787 c-0.828,0.345-1.629,0.773-2.374,1.27c-0.759,0.511-1.463,1.091-2.098,1.726c-0.649,0.635-1.215,1.339-1.726,2.098 c-0.497,0.745-0.925,1.546-1.27,2.374c-0.345,0.842-0.607,1.712-0.787,2.581c-0.179,0.897-0.262,1.808-0.262,2.706 c0,3.63,1.477,7.192,4.045,9.76s6.115,4.045,9.76,4.045c0.897,0,1.808-0.097,2.692-0.276s1.753-0.442,2.581-0.787 c0.828-0.345,1.643-0.773,2.388-1.27c0.759-0.497,1.463-1.077,2.098-1.712c2.568-2.568,4.045-6.129,4.045-9.76 C129.431,82.066,129.334,81.155,129.155,80.257z"></path> </g> </g> </g></svg>